<svg width="653" height="88" viewBox="0 0 653 88" fill="none" xmlns="http://www.w3.org/2000/svg">
<g clip-path="url(#clip0_202_148)">
<path d="M16.2061 51.9087H61.2776V36.1205H16.2061V28.0682C16.2061 26.4577 16.8405 24.9048 18.0228 23.7545L23.7901 17.9741C24.9724 16.8237 26.5007 16.1911 28.1155 16.1911H60.1241C61.739 16.1911 63.2961 16.8237 64.4496 17.9741L74.3694 27.8669L85.558 16.7087L75.6382 6.8159C71.5722 2.73224 65.9203 0.402832 60.153 0.402832H28.1444C22.2906 0.402832 16.8116 2.67473 12.6303 6.8159L6.86301 12.5963C2.71054 16.6224 0.345947 22.259 0.345947 28.0394V87.6264H16.1772V51.9087H16.2061Z" stroke="#929292" stroke-width="0.25" stroke-miterlimit="10"/>
<path d="M112.982 81.242C117.134 85.3544 122.642 87.6263 128.467 87.6263H188.216V71.8381H128.467C126.823 71.8381 125.295 71.2054 124.141 70.0551L118.316 64.2459C117.192 63.1244 116.529 61.5427 116.529 59.961V0.374023H100.697V59.961C100.697 65.7413 103.062 71.3779 107.128 75.4328L112.953 81.242H112.982Z" stroke="#929292" stroke-width="0.25" stroke-miterlimit="10"/>
<path d="M276.398 6.9306C272.332 2.84694 266.68 0.48877 260.884 0.48877H228.876C223.022 0.48877 217.514 2.78942 213.362 6.90184L207.565 12.6822C203.413 16.8234 201.135 22.3162 201.135 28.1541V87.4535H216.966V51.9947H272.823V87.4535H288.654V28.1829C288.654 22.345 286.376 16.8809 282.223 12.711L276.427 6.95936L276.398 6.9306ZM272.794 36.2352H216.937V28.1829C216.937 26.5437 217.572 25.0195 218.725 23.8692L224.521 18.0888C225.675 16.9384 227.203 16.3058 228.847 16.3058H260.855C262.47 16.3058 263.999 16.9384 265.181 18.1175L270.977 23.8692C272.13 25.0482 272.765 26.5724 272.765 28.1829V36.2352H272.794Z" stroke="#929292" stroke-width="0.25" stroke-miterlimit="10"/>
<path d="M427.79 70.0838L421.965 64.2747C420.841 63.1531 420.177 61.5714 420.177 59.961V0.374023H404.346V59.961C404.346 65.7413 406.711 71.3779 410.777 75.4328L416.602 81.242C420.754 85.3544 426.262 87.6263 432.087 87.6263H491.836V71.8381H432.087C430.443 71.8381 428.915 71.2054 427.79 70.0551V70.0838Z" stroke="#929292" stroke-width="0.25" stroke-miterlimit="10"/>
<path d="M580.047 6.9306C575.981 2.84694 570.329 0.48877 564.533 0.48877H532.525C526.671 0.48877 521.163 2.78942 517.01 6.90184L511.214 12.6822C507.062 16.8234 504.784 22.3162 504.784 28.1541V87.4535H520.615V51.9947H576.471V87.4535H592.303V28.1829C592.303 22.345 590.025 16.8809 585.872 12.711L580.076 6.95936L580.047 6.9306ZM576.443 36.2352H520.586V28.1829C520.586 26.5437 521.221 25.0195 522.374 23.8692L528.17 18.0888C529.324 16.9384 530.852 16.3058 532.496 16.3058H564.504C566.119 16.3058 567.647 16.9384 568.801 18.1175L574.597 23.8692C575.751 25.0482 576.385 26.5724 576.385 28.1829V36.2352H576.443Z" stroke="#929292" stroke-width="0.25" stroke-miterlimit="10"/>
<path d="M389.495 16.1622V0.345215H301.659V16.1622H337.734V71.838H301.659V87.6263H389.495V71.838H353.565V16.1622H389.495Z" stroke="#929292" stroke-width="0.25" stroke-miterlimit="10"/>
<path d="M677.572 37.2418V28.1542C677.572 22.3163 675.265 16.8235 671.142 12.6823L665.346 6.90189C661.337 2.90451 656.031 0.632611 650.38 0.517578H649.832H605.135V16.3058V23.0927V57.43V71.8091V87.5973H664.884C670.738 87.5973 676.246 85.2967 680.398 81.1842L686.195 75.4039C690.318 71.2914 692.625 65.8274 692.625 59.9895C692.625 54.1803 690.318 48.6875 686.195 44.5751C686.195 44.5751 681.754 40.6927 677.572 37.2993V37.2418ZM620.966 25.4222V16.2483H649.832C651.475 16.2483 653.004 16.881 654.157 18.0313L659.953 23.8117C661.107 24.962 661.741 26.4862 661.741 28.1254V32.2954H627.051C623.677 32.2954 620.937 29.5633 620.937 26.1986V25.4222H620.966ZM675.035 64.1594L669.239 69.9398C668.085 71.0901 666.557 71.7228 664.913 71.7228H651.389H620.995V56.1646V54.1516C620.995 50.7869 623.735 48.0548 627.108 48.0548H664.942C666.586 48.0548 668.114 48.6875 669.267 49.8378L675.064 55.6182C676.217 56.7686 676.823 58.264 676.851 59.8744C676.851 61.4849 676.217 62.9803 675.064 64.1306L675.035 64.1594Z" stroke="#929292" stroke-width="0.25" stroke-miterlimit="10"/>
</g>
<defs>
<clipPath id="clip0_202_148">
<rect width="693" height="88" fill="white"/>
</clipPath>
</defs>
</svg>
