<svg width="77" height="88" viewBox="0 0 77 88" fill="none" xmlns="http://www.w3.org/2000/svg">
<g clip-path="url(#clip0_202_134)">
<path d="M71.1464 21.7896L66.0609 16.7008C65.097 15.7243 64.0277 14.8686 62.8831 14.1287H62.9183C62.9183 6.46276 56.7233 0.251465 49.0776 0.251465H42.4157V11.0482H34.6093V0.251465H27.9475C20.3017 0.251465 14.1068 6.46276 14.1068 14.1287H14.1168C12.9923 14.8636 11.933 15.7143 10.9641 16.6857L5.88867 21.7745C2.25906 25.4087 0.250977 30.2358 0.250977 35.3699V63.4214C0.250977 68.4951 2.30926 73.4581 5.86859 77.0168L10.9691 82.1308C14.6038 85.7498 19.4031 87.7481 24.5137 87.7481H52.5064C57.5567 87.7481 62.4916 85.6995 66.0509 82.1157L71.1364 77.0168C74.7057 73.448 76.754 68.4851 76.754 63.4214V35.3699C76.754 30.2459 74.761 25.4288 71.1514 21.7896H71.1464ZM62.9082 63.4264C62.9082 64.8459 62.341 66.215 61.357 67.2166L56.2715 72.3155C55.2725 73.3021 53.907 73.8709 52.5013 73.8709H24.5086C23.0779 73.8709 21.7375 73.3172 20.7385 72.3155L15.6379 67.2015C14.654 66.215 14.0867 64.8308 14.0867 63.4214V35.3699C14.0867 33.9354 14.6389 32.5915 15.653 31.5797L20.7284 26.4909C21.7375 25.4792 23.0829 24.9205 24.5086 24.9205H52.5013C53.917 24.9205 55.2574 25.4741 56.2715 26.501L61.3469 31.5646C62.356 32.5915 62.9133 33.9354 62.9133 35.3699V63.4214L62.9082 63.4264Z" stroke="#8A72ED" stroke-miterlimit="10"/>
<path d="M23.2285 56.3343H39.9308C47.5765 56.3343 53.7715 50.123 53.7715 42.457H37.0692C29.4235 42.457 23.2285 48.6683 23.2285 56.3343Z" stroke="#727EEF" stroke-miterlimit="10"/>
</g>
<defs>
<clipPath id="clip0_202_134">
<rect width="77" height="88" fill="white"/>
</clipPath>
</defs>
</svg>
