<svg width="42" height="48" viewBox="0 0 42 48" fill="none" xmlns="http://www.w3.org/2000/svg">
<g clip-path="url(#clip0_2_446)">
<path d="M38.924 11.8157L36.1319 9.02399C35.6027 8.48829 35.0156 8.01887 34.3872 7.61295H34.4065C34.4065 3.40747 31.0053 0 26.8075 0H23.1499V5.92303H18.8639V0H15.2063C11.0085 0 7.6073 3.40747 7.6073 7.61295H7.61281C6.99541 8.01611 6.41383 8.48277 5.88187 9.01571L3.09529 11.8074C1.10251 13.8011 0 16.4492 0 19.2657V34.6545C0 37.438 1.13007 40.1606 3.08426 42.1129L5.88463 44.9184C7.88017 46.9038 10.5152 48 13.321 48H28.69C31.4628 48 34.1722 46.8761 36.1264 44.9101L38.9185 42.1129C40.8782 40.1551 42.0028 37.4324 42.0028 34.6545V19.2657C42.0028 16.4547 40.9085 13.8121 38.9268 11.8157H38.924ZM34.401 34.6573C34.401 35.436 34.0895 36.1871 33.5493 36.7366L30.7572 39.5338C30.2087 40.075 29.459 40.387 28.6872 40.387H13.3183C12.5327 40.387 11.7968 40.0833 11.2483 39.5338L8.44796 36.7283C7.90773 36.1871 7.59627 35.4277 7.59627 34.6545V19.2657C7.59627 18.4787 7.89946 17.7415 8.45623 17.1864L11.2428 14.3948C11.7968 13.8397 12.5355 13.5332 13.3183 13.5332H28.6872C29.4645 13.5332 30.2004 13.837 30.7572 14.4003L33.5438 17.1782C34.0978 17.7415 34.4037 18.4787 34.4037 19.2657V34.6545L34.401 34.6573Z" fill="black"/>
<path d="M12.6154 30.7666H21.7855C25.9833 30.7666 29.3845 27.3592 29.3845 23.1537H20.2144C16.0167 23.1537 12.6154 26.5612 12.6154 30.7666Z" fill="black"/>
</g>
<defs>
<clipPath id="clip0_2_446">
<rect width="42" height="48" fill="white"/>
</clipPath>
</defs>
</svg>
