<svg width="736" height="517" viewBox="0 0 736 517" fill="none" xmlns="http://www.w3.org/2000/svg">
<g clip-path="url(#clip0_118_622)">
<path d="M366.969 272.216H322.406V0.481689H230.543C217.205 0.481689 203.617 6.41492 195.386 15.7386L14.9377 199.11C6.03289 208.029 0.481812 221.186 0.481812 233.438V317.967C0.481812 344.416 22.8403 366.762 49.3043 366.762H224.799V516.499H322.425V366.762H366.988V272.197L366.969 272.216ZM95.8332 272.216V255.495L224.761 124.925V272.216H95.8525H95.8332Z" stroke="#929292" stroke-width="0.5" stroke-miterlimit="10"/>
<path d="M735.518 190.422V95.317C735.518 82.68 730.256 70.1586 721.043 60.9698L674.977 14.9295C665.918 5.87553 653.081 0.481689 640.629 0.481689H509.215C496.571 0.481689 484.043 5.74069 474.791 15.0065L383.506 106.991C374.447 116.045 369.031 128.874 369.031 141.338V191.636H465.905V161.218L529.126 98.0332H621.49L638.644 115.178V170.6L381.213 431.546C372.019 440.716 366.757 453.237 366.757 465.874C366.757 478.511 372.019 491.033 381.213 500.221C390.387 509.41 402.916 514.669 415.56 514.669H735.499V417.098H532.846L721.043 224.712C730.102 215.658 735.518 202.828 735.518 190.384V190.422Z" stroke="#929292" stroke-width="0.5" stroke-miterlimit="10"/>
</g>
<defs>
<clipPath id="clip0_118_622">
<rect width="736" height="517" fill="white"/>
</clipPath>
</defs>
</svg>
