<svg width="736" height="517" viewBox="0 0 736 517" fill="none" xmlns="http://www.w3.org/2000/svg">
<g clip-path="url(#clip0_202_236)">
<path d="M366.969 272.216H322.406V0.481445H230.543C217.205 0.481445 203.617 6.41467 195.387 15.7383L14.9379 199.11C6.03301 208.029 0.481934 221.186 0.481934 233.438V317.967C0.481934 344.416 22.8405 366.762 49.3045 366.762H224.8V516.499H322.425V366.762H366.988V272.196L366.969 272.216ZM95.8333 272.216V255.495L224.761 124.925V272.216H95.8526H95.8333Z" stroke="#929292" stroke-width="0.5" stroke-miterlimit="10"/>
<path d="M735.518 190.422V95.3168C735.518 82.6798 730.256 70.1584 721.043 60.9696L674.977 14.9292C665.918 5.87529 653.081 0.481445 640.629 0.481445H509.215C496.571 0.481445 484.043 5.74044 474.791 15.0063L383.506 106.991C374.447 116.045 369.031 128.874 369.031 141.338V191.635H465.905V161.218L529.126 98.033H621.49L638.644 115.178V170.599L381.213 431.546C372.019 440.715 366.757 453.237 366.757 465.874C366.757 478.511 372.019 491.032 381.213 500.221C390.387 509.41 402.916 514.669 415.56 514.669H735.499V417.098H532.846L721.043 224.711C730.102 215.657 735.518 202.828 735.518 190.383V190.422Z" stroke="#929292" stroke-width="0.5" stroke-miterlimit="10"/>
</g>
<defs>
<clipPath id="clip0_202_236">
<rect width="736" height="517" fill="white"/>
</clipPath>
</defs>
</svg>
