<svg width="33" height="33" viewBox="0 0 33 33" fill="none" xmlns="http://www.w3.org/2000/svg">
<path d="M9.6089 16.9089C9.6089 16.0203 8.99186 15.4899 7.90294 15.4899C7.45875 15.4899 7.15781 15.5328 7 15.5757V18.4292C7.18657 18.4715 7.41591 18.486 7.73046 18.486C8.89222 18.486 9.6089 17.8984 9.6089 16.9089Z" fill="#E9ED33"/>
<path d="M16.3486 15.5186C15.8606 15.5186 15.5459 15.5615 15.3589 15.6045V21.9267C15.5456 21.9704 15.8467 21.9704 16.1192 21.9704C18.0973 21.9842 19.3877 20.8952 19.3877 18.5869C19.4022 16.579 18.2263 15.5186 16.3486 15.5186Z" fill="#E9ED33"/>
<path d="M29.2629 11.8039H28.4705V7.98056C28.4705 7.95671 28.4667 7.93269 28.4635 7.90854C28.4623 7.75672 28.414 7.6076 28.31 7.48945L21.9475 0.221318C21.9456 0.21946 21.9437 0.218801 21.9424 0.216764C21.9045 0.174406 21.8603 0.139177 21.8135 0.108682C21.7997 0.0993952 21.7857 0.0916066 21.7712 0.0835783C21.7307 0.0614705 21.6878 0.0431372 21.6436 0.0298965C21.6316 0.0265413 21.6208 0.0216285 21.6088 0.018513C21.5608 0.00712962 21.5109 0 21.4603 0H5.82348C5.10944 0 4.52936 0.580734 4.52936 1.29418V11.8036H3.73714C2.71568 11.8036 1.88745 12.6315 1.88745 13.6533V23.272C1.88745 24.2931 2.71568 25.1215 3.73714 25.1215H4.52942V31.7058C4.52942 32.4192 5.1095 33 5.82354 33H27.1764C27.8898 33 28.4706 32.4193 28.4706 31.7058V25.1215H29.263C30.2841 25.1215 31.1125 24.2931 31.1125 23.272V13.6536C31.1125 12.6319 30.2841 11.8039 29.2629 11.8039ZM5.82348 1.29441H20.8132V7.91555C20.8132 8.27305 21.1033 8.56261 21.4603 8.56261H27.1764V11.8044H5.82348V1.29441ZM21.7099 18.5144C21.7099 20.3643 21.0363 21.6398 20.103 22.4287C19.0862 23.2745 17.5376 23.6757 15.6458 23.6757C14.5134 23.6757 13.7108 23.604 13.1653 23.5326V14.0414C13.9681 13.9127 15.0153 13.841 16.1192 13.841C17.9533 13.841 19.1435 14.171 20.0758 14.873C21.0789 15.6187 21.7099 16.8083 21.7099 18.5144ZM4.83492 23.5756V14.0414C5.5084 13.9274 6.45508 13.841 7.78838 13.841C9.13587 13.841 10.0966 14.0991 10.7415 14.6155C11.3582 15.1027 11.7729 15.9057 11.7729 16.852C11.7729 17.7985 11.4584 18.6013 10.8845 19.1457C10.1391 19.8484 9.03528 20.164 7.74464 20.164C7.45838 20.164 7.19943 20.1494 6.99963 20.1207V23.5758H4.83492V23.5756ZM27.1764 31.3555H5.82348V25.1215H27.1764V31.3555H27.1764ZM29.0515 15.7047H25.3376V17.9126H28.8073V19.6904H25.3376V23.5757H23.1452V13.9127H29.0515V15.7047Z" fill="#E9ED33"/>
</svg>
