<svg width="74" height="85" viewBox="0 0 74 85" fill="none" xmlns="http://www.w3.org/2000/svg">
<g clip-path="url(#clip0_202_100)">
<path d="M68.5797 20.9237L63.6611 15.983C62.7263 15.0357 61.693 14.2028 60.5851 13.484H60.6179C60.6179 6.03835 54.6242 0.00300715 47.2299 0.00300715H40.7853V10.4889H33.2356V0H26.791C19.3967 0 13.403 6.03534 13.403 13.481H13.4119C12.3249 14.1937 11.3005 15.0207 10.3598 15.9679L5.45317 20.9087C1.94116 24.4361 0 29.1272 0 34.1161V61.3698C0 66.2986 1.98894 71.122 5.43226 74.5772L10.3628 79.542C13.8778 83.0574 18.5217 85 23.4671 85H50.5448C55.4276 85 60.2058 83.0093 63.6491 79.53L68.5677 74.5772C72.023 71.11 74 66.2895 74 61.3698V34.1161C74 29.1392 72.0708 24.4601 68.5797 20.9207V20.9237Z" fill="#8A72ED"/>
<path d="M29.3577 31.8555L53.4265 48.2133L29.3577 64.571L29.3577 48.2133L29.3577 31.8555Z" fill="white"/>
</g>
<defs>
<clipPath id="clip0_202_100">
<rect width="74" height="85" fill="white"/>
</clipPath>
</defs>
</svg>
