<svg width="260" height="27" viewBox="0 0 260 27" fill="none" xmlns="http://www.w3.org/2000/svg">
<g clip-path="url(#clip0_202_33)">
<path d="M30.4619 22.9809L36.3077 17.1624V17.1941C36.3316 18.6844 36.9281 20.0796 37.9859 21.1339L43.8715 27H49.7332L40.9207 18.2167C40.6265 17.9234 40.4594 17.5349 40.4594 17.1544V13.0323L49.3753 4.14593H43.5136L30.4698 17.1465V4.138H26.3181V27H30.4698V22.9809H30.4619Z" fill="black"/>
<path d="M82.1437 25.3194C83.2334 26.3975 84.673 26.9921 86.208 26.9921H101.868V22.8541H86.208C85.7785 22.8541 85.3808 22.6876 85.0786 22.3943L83.5515 20.8723C83.2572 20.579 83.0902 20.1668 83.0902 19.7466V4.138H78.9385V19.7466C78.9385 21.2607 79.5589 22.7352 80.6246 23.7974L82.1517 25.3194H82.1437Z" fill="black"/>
<path d="M17.1875 13.5H5.75034C4.86751 13.5 4.15169 12.7866 4.15169 11.9066V11.3914C4.15169 10.9633 4.31871 10.5669 4.62095 10.2578L6.14007 8.7437C6.4423 8.44246 6.84793 8.27599 7.27742 8.27599H15.6684C16.0979 8.27599 16.4955 8.44246 16.8057 8.7437L19.4065 11.3359L22.3414 8.41075L19.7406 5.81856C18.6589 4.74047 17.2113 4.138 15.6763 4.138H7.28537C5.75034 4.138 4.30281 4.74047 3.22113 5.81856L1.70201 7.33266C0.620335 8.41075 0.0158691 9.8535 0.0158691 11.3834V11.8987C0.0158691 15.0537 2.5928 17.6301 5.76625 17.6301H17.2034C18.0862 17.6301 18.802 18.3435 18.802 19.2234V19.7387C18.802 20.1588 18.635 20.5711 18.3328 20.8723L16.8216 22.3864C16.5114 22.6876 16.1138 22.8541 15.6843 22.8541H7.29332C6.86383 22.8541 6.46616 22.6876 6.15597 22.3943L3.55518 19.8021L0.620335 22.7273L3.22113 25.3194C4.31076 26.3975 5.75034 26.9921 7.28537 26.9921H15.6763C17.2113 26.9921 18.6509 26.3975 19.7485 25.3115L21.2597 23.7974C22.3334 22.7352 22.9538 21.2528 22.9538 19.7387V19.2234C22.9538 16.0605 20.3768 13.4921 17.2034 13.4921L17.1875 13.5Z" fill="black"/>
<path d="M98.6554 5.81064C97.5657 4.73254 96.1261 4.138 94.5911 4.138H92.6664C91.1313 4.138 89.6918 4.73254 88.5942 5.81856L87.083 7.33266C86.0093 8.3949 85.3889 9.87728 85.3889 11.3914V13.4842C85.3889 15.0141 85.9934 16.4569 87.0751 17.5349L88.5942 19.049C89.6759 20.1271 91.1234 20.7296 92.6584 20.7296H94.5832C96.1182 20.7296 97.5657 20.1271 98.6474 19.049L100.167 17.5349C101.248 16.4569 101.853 15.0141 101.853 13.4842V11.3914C101.853 9.87728 101.232 8.40283 100.167 7.33266L98.6394 5.81064H98.6554ZM97.7168 13.4762C97.7168 13.9043 97.5498 14.3007 97.2476 14.6098L95.7285 16.1239C95.4262 16.4251 95.0206 16.5916 94.5911 16.5916H92.6664C92.2369 16.5916 91.8392 16.4251 91.529 16.1239L90.0099 14.6098C89.7077 14.3086 89.5406 13.9043 89.5406 13.4762V11.3834C89.5406 10.9633 89.7077 10.5511 90.0099 10.2499L91.5211 8.73577C91.8313 8.43454 92.2289 8.26807 92.6584 8.26807H94.5832C95.0127 8.26807 95.4103 8.43454 95.7126 8.72784L97.2396 10.2499C97.5339 10.5432 97.7009 10.9554 97.7009 11.3755V13.4683L97.7168 13.4762Z" fill="black"/>
<path d="M125.053 5.81064C123.963 4.73254 122.524 4.138 120.989 4.138H112.598C111.063 4.138 109.623 4.73254 108.526 5.81856L107.014 7.33266C105.941 8.3949 105.32 9.87728 105.32 11.3914V27H109.472V20.9833C109.981 21.1339 110.514 21.2369 111.071 21.2369H120.981C122.516 21.2369 123.955 20.6424 125.053 19.5564L126.564 18.0423C127.638 16.98 128.258 15.5056 128.258 13.9915V11.3834C128.258 9.86936 127.638 8.3949 126.572 7.33266L125.045 5.81064H125.053ZM124.114 13.6427V13.9915C124.114 14.4116 123.947 14.8159 123.645 15.1172L122.134 16.6312C121.824 16.9325 121.426 17.099 120.997 17.099H111.087C110.204 17.099 109.488 16.3855 109.488 15.5056V11.3834C109.488 10.9633 109.655 10.5511 109.957 10.2499L111.468 8.73577C111.779 8.43454 112.176 8.26807 112.606 8.26807H120.997C121.426 8.26807 121.824 8.43454 122.126 8.72784L123.653 10.2499C123.947 10.5432 124.114 10.9554 124.114 11.3755V13.6348V13.6427Z" fill="black"/>
<path d="M230.484 5.85818C229.403 4.78008 227.955 4.17761 226.42 4.17761H218.029C216.494 4.17761 215.047 4.78008 213.965 5.85818L212.446 7.37227C211.364 8.45037 210.76 9.89311 210.76 11.4231V26.9603H214.911V21.0308C215.421 21.1814 215.953 21.2845 216.51 21.2845H226.42C226.85 21.2845 227.247 21.451 227.55 21.7443L229.077 23.2663C229.379 23.5675 229.538 23.9639 229.538 24.3919V26.9683H233.69V24.3919C233.69 22.8778 233.069 21.4034 232.004 20.3411L230.866 19.2076L231.996 18.0819C233.077 17.0038 233.682 15.5611 233.682 14.0311V11.4231C233.682 9.89311 233.077 8.45037 231.996 7.37227L230.477 5.85818H230.484ZM229.546 13.4286V14.0311C229.546 14.4592 229.379 14.8555 229.077 15.1647L227.558 16.6788C227.255 16.98 226.85 17.1465 226.42 17.1465H216.51C215.627 17.1465 214.911 16.433 214.911 15.5531V11.431C214.911 11.0029 215.079 10.6066 215.381 10.2974L216.9 8.78331C217.202 8.48207 217.608 8.3156 218.037 8.3156H226.428C226.858 8.3156 227.255 8.48207 227.566 8.78331L229.085 10.2974C229.387 10.5986 229.554 11.0029 229.554 11.431V13.4366L229.546 13.4286Z" fill="black"/>
<path d="M135.146 25.3115C136.228 26.3896 137.675 26.9921 139.21 26.9921H147.601C149.12 26.9921 150.6 26.3737 151.665 25.3115L154.266 22.7193L151.331 19.7942L148.731 22.3864C148.428 22.6876 148.031 22.8461 147.601 22.8461H139.21C138.781 22.8461 138.383 22.6797 138.073 22.3784L136.554 20.8643C136.252 20.5631 136.084 20.1588 136.084 19.7308V17.6221H147.895V13.4841H136.084V11.3755C136.084 10.9554 136.252 10.5431 136.554 10.2419L138.065 8.72782C138.375 8.42659 138.773 8.26012 139.202 8.26012H147.593C148.015 8.26012 148.42 8.42659 148.723 8.71989L151.323 11.3121L154.258 8.38695L151.657 5.79476C150.592 4.72459 149.112 4.1142 147.593 4.1142H139.202C137.667 4.1142 136.228 4.70874 135.13 5.79476L133.619 7.30885C132.545 8.3711 131.925 9.85348 131.925 11.3676V19.7308C131.925 21.2607 132.529 22.7034 133.611 23.7815L135.13 25.2956L135.146 25.3115Z" fill="black"/>
<path d="M204.174 5.85818C203.093 4.78008 201.645 4.17761 200.11 4.17761H187.83C185.969 4.17761 184.45 5.69171 184.45 7.54667V23.5913C184.45 25.4463 185.969 26.9603 187.83 26.9603H200.11C201.645 26.9603 203.085 26.3658 204.182 25.2798L205.694 23.7657C206.767 22.7034 207.388 21.2211 207.388 19.707V11.4231C207.388 9.89311 206.783 8.45037 205.701 7.37227L204.182 5.85818H204.174ZM203.236 19.7149C203.236 20.135 203.069 20.5473 202.767 20.8485L201.255 22.3626C200.945 22.6638 200.548 22.8303 200.118 22.8303H188.609V8.30768H200.118C200.548 8.30768 200.945 8.47415 201.255 8.77538L202.775 10.2895C203.077 10.5907 203.244 10.995 203.244 11.4231V19.707L203.236 19.7149Z" fill="black"/>
<path d="M256.795 5.8582C255.729 4.78803 254.25 4.16971 252.731 4.16971H244.34C242.805 4.16971 241.357 4.77217 240.275 5.85027L238.756 7.36436C237.675 8.44246 237.07 9.88521 237.07 11.4152V26.9524H241.222V17.6697H255.856V26.9524H260.008V11.4231C260.008 9.89314 259.411 8.45832 258.322 7.36436L256.803 5.8582H256.795ZM241.214 13.5317V11.4231C241.214 10.995 241.381 10.5987 241.683 10.2895L243.202 8.7754C243.504 8.47417 243.91 8.3077 244.34 8.3077H252.731C253.152 8.3077 253.558 8.47417 253.86 8.7754L255.379 10.2816C255.681 10.5907 255.848 10.9871 255.848 11.4152V13.5238H241.214V13.5317Z" fill="black"/>
<path d="M180.887 4.138H176.735V21.0625L163.898 6.23078C162.967 5.15268 161.504 4.77218 160.16 5.26366C158.816 5.76307 157.949 6.99972 157.949 8.42661V26.9921H162.1V10.4877L174.945 25.3274C175.876 26.4055 177.339 26.7701 178.684 26.2866C180.02 25.7871 180.887 24.5505 180.887 23.1315V10.0755V4.138Z" fill="black"/>
<path d="M59.5002 17.6301H64.511C66.8016 17.6301 68.6627 15.7751 68.6627 13.4921H63.652C61.3614 13.4921 59.5002 15.347 59.5002 17.6301Z" fill="black"/>
<path d="M73.872 7.34058L72.3449 5.82648C71.2792 4.75631 71.3985 4.13799 71.3985 4.13799C71.3985 1.85496 69.5374 0 67.2468 0H65.2504V4.13799H62.9121V0H60.9158C58.6251 0 56.764 1.85496 56.764 4.13799C56.764 4.13799 56.9072 4.74046 55.8176 5.81856L54.2984 7.33265C53.2168 8.41075 52.6123 9.85349 52.6123 11.3834V19.7466C52.6123 21.2607 53.2327 22.7352 54.2984 23.7974L55.8255 25.3194C56.9152 26.3975 58.3547 26.9921 59.8898 26.9921H68.2807C69.7919 26.9921 71.2712 26.3817 72.3449 25.3115L73.872 23.7895C74.9457 22.7272 75.5582 21.2449 75.5582 19.7387V11.3755C75.5582 9.84557 74.9616 8.41075 73.88 7.32472L73.872 7.34058ZM71.3985 19.7466C71.3985 20.1668 71.2315 20.579 70.9372 20.8723L69.4101 22.3943C69.1079 22.6876 68.7022 22.8541 68.2807 22.8541H59.8898C59.4603 22.8541 59.0626 22.6876 58.7604 22.3943L57.2333 20.8723C56.939 20.579 56.772 20.1668 56.772 19.7466V11.3834C56.772 10.9554 56.939 10.559 57.2412 10.2578L58.7604 8.74369C59.0626 8.44245 59.4682 8.27598 59.8898 8.27598H68.2807C68.7022 8.27598 69.1079 8.44245 69.4101 8.74369L70.9292 10.2499C71.2315 10.559 71.3985 10.9554 71.3985 11.3834V19.7466Z" fill="black"/>
<path d="M184.02 17.638H189.031C191.322 17.638 193.183 15.783 193.183 13.5H188.172C185.881 13.5 184.824 15.355 184.824 17.638H184.02Z" fill="black"/>
</g>
<defs>
<clipPath id="clip0_202_33">
<rect width="260" height="27" fill="white"/>
</clipPath>
</defs>
</svg>
