<svg width="59" height="70" viewBox="0 0 59 70" fill="none" xmlns="http://www.w3.org/2000/svg">
<g clip-path="url(#clip0_202_239)">
<path d="M51.4959 22.2598L29.644 0C29.5968 0.048067 29.5496 0.100941 29.5024 0.153814C29.4552 0.100941 29.408 0.048067 29.3609 0L7.49956 22.2598C-2.50132 32.4452 -2.50132 48.9611 7.49956 59.1465L29.3561 36.8866C29.4033 36.8386 29.4505 36.7857 29.4977 36.7328C29.5449 36.7857 29.5921 36.8386 29.6393 36.8866L51.4959 59.1465C61.4968 48.9611 61.4968 32.4452 51.4959 22.2598Z" fill="#E9ED33"/>
<path d="M29.4976 70C35.3833 70 40.1545 65.1407 40.1545 59.1465C40.1545 53.1523 35.3833 48.293 29.4976 48.293C23.612 48.293 18.8407 53.1523 18.8407 59.1465C18.8407 65.1407 23.612 70 29.4976 70Z" fill="#E9ED33"/>
</g>
<defs>
<clipPath id="clip0_202_239">
<rect width="59" height="70" fill="white"/>
</clipPath>
</defs>
</svg>
